<?xml version="1.0" standalone="no"?>
<!DOCTYPE svg PUBLIC "-//W3C//DTD SVG 20010904//EN"
 "http://www.w3.org/TR/2001/REC-SVG-20010904/DTD/svg10.dtd">
<svg version="1.0" xmlns="http://www.w3.org/2000/svg"
 width="784.000000pt" height="258.000000pt" viewBox="0 0 784.000000 258.000000"
 preserveAspectRatio="xMidYMid meet">

<g transform="translate(0.000000,258.000000) scale(0.100000,-0.100000)"
fill="#9693e6" stroke="none">
<path d="M4427 2170 c-137 -23 -284 -88 -397 -175 -313 -241 -409 -709 -219
-1075 119 -231 359 -399 630 -441 106 -16 306 -6 399 21 243 69 434 227 541
445 58 120 78 196 85 335 25 443 -269 811 -710 889 -68 13 -258 13 -329 1z
m288 -571 c95 -45 146 -140 146 -273 0 -93 -13 -141 -51 -194 -105 -146 -340
-145 -437 1 -41 61 -53 104 -53 188 0 154 77 267 203 300 49 12 141 2 192 -22z"/>
<path d="M5710 1350 l0 -820 290 0 290 0 2 335 3 336 195 -336 195 -335 359 0
358 0 -18 28 c-9 15 -132 195 -271 401 -140 206 -258 382 -263 390 -6 12 54
117 222 391 126 206 236 387 244 403 l15 27 -335 0 -334 0 -85 -157 c-46 -87
-129 -241 -183 -343 l-99 -185 -3 343 -2 342 -290 0 -290 0 0 -820z"/>
<path d="M540 2121 c-127 -42 -199 -142 -188 -261 16 -160 183 -267 338 -216
l52 17 101 -88 c56 -49 119 -102 139 -118 21 -17 38 -33 38 -37 0 -5 -15 -29
-34 -55 -73 -103 -111 -238 -104 -370 l3 -66 -44 -22 -44 -23 -35 24 c-112 77
-285 49 -363 -59 -139 -191 53 -450 283 -383 107 31 186 124 190 225 1 37 6
46 32 62 17 10 34 19 38 19 4 0 20 -19 34 -43 68 -107 210 -211 343 -250 89
-26 251 -27 341 -3 213 58 380 225 434 434 40 153 3 336 -94 467 -46 61 -78
91 -151 142 l-56 39 16 34 c14 31 22 36 69 42 145 21 240 131 230 267 -17 240
-353 316 -482 108 -52 -84 -49 -182 10 -266 l34 -51 -19 -37 -19 -38 -105 4
c-128 4 -198 -10 -298 -56 l-77 -35 -143 124 c-117 101 -144 129 -142 149 14
159 -18 233 -124 296 -48 28 -154 41 -203 24z m1076 -675 c124 -33 230 -120
287 -235 30 -61 32 -73 32 -166 0 -73 -5 -112 -18 -145 -20 -49 -65 -120 -77
-120 -4 0 -13 13 -20 30 -12 28 -91 110 -107 110 -5 0 -14 4 -22 9 -11 7 -8
17 17 52 114 162 15 371 -183 387 -38 3 -83 0 -110 -8 -56 -16 -127 -77 -154
-133 -39 -80 -22 -211 33 -256 24 -20 19 -35 -20 -56 -37 -20 -95 -84 -107
-118 -4 -10 -13 -17 -19 -15 -23 8 -87 148 -94 207 -31 247 175 470 436 471
41 0 98 -6 126 -14z"/>
<path d="M2370 1290 l0 -820 585 0 585 0 0 265 0 265 -285 0 -285 0 0 555 0
555 -300 0 -300 0 0 -820z"/>
</g>
</svg>
